<svg xmlns="http://www.w3.org/2000/svg" viewBox="0 0 512 512">
<defs>
 <linearGradient id="blue" x1="0" y1="0" x2="1" y2="1"><stop stop-color="#0878d1"/><stop offset="1" stop-color="#122b68"/></linearGradient>
 <linearGradient id="orange" x1="0" y1="0" x2="1" y2="1"><stop stop-color="#f06a00"/><stop offset="1" stop-color="#ffb000"/></linearGradient>
</defs>
<rect width="512" height="512" fill="#fff"/>
<path d="M88 370C42 302 42 210 92 143C137 83 193 53 256 53s119 30 164 90c50 67 50 159 4 227" fill="none" stroke="url(#blue)" stroke-width="12"/>
<path d="M92 143C143 79 197 55 256 55c59 0 113 24 164 88" fill="none" stroke="url(#orange)" stroke-width="12"/>
<g fill="url(#blue)">
 <path d="M125 243c-24 18-29 48-12 71 25-7 37-35 12-71zM112 286c-21 20-20 48 2 65 20-11 24-39-2-65zM118 331c-13 22-4 46 19 56 13-16 7-42-19-56z"/>
 <path d="M387 243c24 18 29 48 12 71-25-7-37-35-12-71zM400 286c21 20 20 48-2 65-20-11-24-39 2-65zM394 331c13 22 4 46-19 56-13-16-7-42 19-56z"/>
</g>
<path d="M205 101h102l-51 29z" fill="#123d87"/>
<path d="M220 126h72v46h-72z" fill="#17366f"/>
<path d="M292 130c12 15 13 36 3 53l-15-17z" fill="#f4a400"/>
<path d="M256 155c-24 17-43 25-65 27l65 28 65-28c-22-2-41-10-65-27z" fill="#fff" stroke="#123d87" stroke-width="6"/>
<path d="M256 177c-29 17-52 18-76 8 25 22 51 29 76 43 25-14 51-21 76-43-24 10-47 9-76-8z" fill="url(#orange)"/>
<text x="256" y="300" text-anchor="middle" font-family="Georgia,serif" font-size="128" font-weight="700" fill="url(#blue)">JVA</text>
<text x="256" y="343" text-anchor="middle" font-family="Georgia,serif" font-size="25" letter-spacing="4" font-weight="700" fill="#122b68">JAMB VANGUARD</text>
<text x="256" y="372" text-anchor="middle" font-family="Arial,sans-serif" font-size="19" letter-spacing="7" font-weight="700" fill="#e76b12">ACADEMY</text>
<path d="M151 405h210" stroke="url(#orange)" stroke-width="5"/>
<path d="M256 392l18 28-18 20-18-20z" fill="#17366f"/><path d="M256 400v31" stroke="#fff" stroke-width="4"/>
<path d="M92 412c43 40 101 60 164 60s121-20 164-60" fill="none" stroke="#17366f" stroke-width="18"/>
<text x="256" y="452" text-anchor="middle" font-family="Arial,sans-serif" font-size="14" letter-spacing="3" font-weight="700" fill="#fff">LEARN • PREPARE • EXCEL</text>
</svg>